<mxfile host="Electron" agent="Mozilla/5.0 (Windows NT 10.0; Win64; x64) AppleWebKit/537.36 (KHTML, like Gecko) draw.io/27.0.9 Chrome/134.0.6998.205 Electron/35.4.0 Safari/537.36" version="27.0.9">
  <diagram name="PÃ¡gina-1" id="zQjjP_EeiTSpy_okXXAl">
    <mxGraphModel dx="1650" dy="575" grid="1" gridSize="10" guides="1" tooltips="1" connect="1" arrows="1" fold="1" page="1" pageScale="1" pageWidth="827" pageHeight="1169" math="0" shadow="0">
      <root>
        <mxCell id="0" />
        <mxCell id="1" parent="0" />
        <mxCell id="T4INIT_YNYkDTxaIdpLA-22" value="Edicion" style="shape=ext;margin=3;double=1;whiteSpace=wrap;html=1;align=center;fillColor=#f0a30a;fontColor=#000000;strokeColor=#BD7000;" parent="1" vertex="1">
          <mxGeometry x="501" y="509" width="100" height="40" as="geometry" />
        </mxCell>
        <mxCell id="S6u8QotT0W9OFZ7Kg-1y-2" value="Curso" style="whiteSpace=wrap;html=1;align=center;fillColor=#f0a30a;strokeColor=#BD7000;fontColor=#000000;" parent="1" vertex="1">
          <mxGeometry x="131" y="499" width="100" height="40" as="geometry" />
        </mxCell>
        <mxCell id="S6u8QotT0W9OFZ7Kg-1y-9" value="" style="endArrow=none;html=1;rounded=0;" parent="1" source="S6u8QotT0W9OFZ7Kg-1y-2" target="S6u8QotT0W9OFZ7Kg-1y-10" edge="1">
          <mxGeometry relative="1" as="geometry">
            <mxPoint x="146" y="624" as="sourcePoint" />
            <mxPoint x="206" y="624" as="targetPoint" />
          </mxGeometry>
        </mxCell>
        <mxCell id="S6u8QotT0W9OFZ7Kg-1y-10" value="Nombre" style="ellipse;whiteSpace=wrap;html=1;align=center;" parent="1" vertex="1">
          <mxGeometry x="191" y="610" width="50" height="30" as="geometry" />
        </mxCell>
        <mxCell id="S6u8QotT0W9OFZ7Kg-1y-11" value="" style="endArrow=none;html=1;rounded=0;exitX=0.25;exitY=1;exitDx=0;exitDy=0;" parent="1" source="S6u8QotT0W9OFZ7Kg-1y-2" target="S6u8QotT0W9OFZ7Kg-1y-12" edge="1">
          <mxGeometry relative="1" as="geometry">
            <mxPoint x="81" y="625" as="sourcePoint" />
            <mxPoint x="141" y="625" as="targetPoint" />
          </mxGeometry>
        </mxCell>
        <mxCell id="S6u8QotT0W9OFZ7Kg-1y-12" value="&lt;u&gt;Codigo_Curso&lt;/u&gt;" style="ellipse;whiteSpace=wrap;html=1;align=center;" parent="1" vertex="1">
          <mxGeometry x="116" y="610" width="50" height="30" as="geometry" />
        </mxCell>
        <mxCell id="S6u8QotT0W9OFZ7Kg-1y-13" value="" style="endArrow=none;html=1;rounded=0;exitX=0.75;exitY=1;exitDx=0;exitDy=0;" parent="1" source="S6u8QotT0W9OFZ7Kg-1y-2" target="S6u8QotT0W9OFZ7Kg-1y-14" edge="1">
          <mxGeometry relative="1" as="geometry">
            <mxPoint x="271" y="604" as="sourcePoint" />
            <mxPoint x="331" y="604" as="targetPoint" />
          </mxGeometry>
        </mxCell>
        <mxCell id="S6u8QotT0W9OFZ7Kg-1y-14" value="&lt;div&gt;Descripcion&lt;/div&gt;" style="ellipse;whiteSpace=wrap;html=1;align=center;" parent="1" vertex="1">
          <mxGeometry x="251" y="610" width="50" height="30" as="geometry" />
        </mxCell>
        <mxCell id="S6u8QotT0W9OFZ7Kg-1y-17" value="" style="endArrow=none;html=1;rounded=0;" parent="1" source="S6u8QotT0W9OFZ7Kg-1y-2" target="S6u8QotT0W9OFZ7Kg-1y-18" edge="1">
          <mxGeometry relative="1" as="geometry">
            <mxPoint x="21" y="604" as="sourcePoint" />
            <mxPoint x="81" y="604" as="targetPoint" />
          </mxGeometry>
        </mxCell>
        <mxCell id="S6u8QotT0W9OFZ7Kg-1y-18" value="Horas_De_Duracion" style="ellipse;whiteSpace=wrap;html=1;align=center;" parent="1" vertex="1">
          <mxGeometry x="66" y="580" width="50" height="30" as="geometry" />
        </mxCell>
        <mxCell id="S6u8QotT0W9OFZ7Kg-1y-19" style="edgeStyle=orthogonalEdgeStyle;rounded=0;orthogonalLoop=1;jettySize=auto;html=1;exitX=0.5;exitY=1;exitDx=0;exitDy=0;" parent="1" source="S6u8QotT0W9OFZ7Kg-1y-18" target="S6u8QotT0W9OFZ7Kg-1y-18" edge="1">
          <mxGeometry relative="1" as="geometry" />
        </mxCell>
        <mxCell id="S6u8QotT0W9OFZ7Kg-1y-20" value="" style="endArrow=none;html=1;rounded=0;exitX=1;exitY=1;exitDx=0;exitDy=0;" parent="1" source="S6u8QotT0W9OFZ7Kg-1y-2" target="S6u8QotT0W9OFZ7Kg-1y-21" edge="1">
          <mxGeometry relative="1" as="geometry">
            <mxPoint x="284" y="595" as="sourcePoint" />
            <mxPoint x="344" y="595" as="targetPoint" />
          </mxGeometry>
        </mxCell>
        <mxCell id="S6u8QotT0W9OFZ7Kg-1y-21" value="Coste_Curso" style="ellipse;whiteSpace=wrap;html=1;align=center;" parent="1" vertex="1">
          <mxGeometry x="284" y="580" width="50" height="30" as="geometry" />
        </mxCell>
        <mxCell id="S6u8QotT0W9OFZ7Kg-1y-39" value="Diferentes" style="shape=rhombus;perimeter=rhombusPerimeter;whiteSpace=wrap;html=1;align=center;fillColor=#76608a;fontColor=#ffffff;strokeColor=#432D57;" parent="1" vertex="1">
          <mxGeometry x="320" y="499" width="90" height="40" as="geometry" />
        </mxCell>
        <mxCell id="S6u8QotT0W9OFZ7Kg-1y-40" value="" style="endArrow=none;html=1;rounded=0;exitX=0;exitY=0.5;exitDx=0;exitDy=0;" parent="1" source="S6u8QotT0W9OFZ7Kg-1y-39" target="S6u8QotT0W9OFZ7Kg-1y-2" edge="1">
          <mxGeometry relative="1" as="geometry">
            <mxPoint x="308" y="499" as="sourcePoint" />
            <mxPoint x="261" y="529" as="targetPoint" />
          </mxGeometry>
        </mxCell>
        <mxCell id="S6u8QotT0W9OFZ7Kg-1y-41" value="(1,1)" style="resizable=0;html=1;whiteSpace=wrap;align=right;verticalAlign=bottom;" parent="S6u8QotT0W9OFZ7Kg-1y-40" connectable="0" vertex="1">
          <mxGeometry x="1" relative="1" as="geometry">
            <mxPoint x="34" as="offset" />
          </mxGeometry>
        </mxCell>
        <mxCell id="S6u8QotT0W9OFZ7Kg-1y-42" value="" style="endArrow=none;html=1;rounded=0;exitX=1;exitY=0.5;exitDx=0;exitDy=0;" parent="1" source="S6u8QotT0W9OFZ7Kg-1y-39" edge="1">
          <mxGeometry relative="1" as="geometry">
            <mxPoint x="308" y="499" as="sourcePoint" />
            <mxPoint x="501" y="529" as="targetPoint" />
          </mxGeometry>
        </mxCell>
        <mxCell id="S6u8QotT0W9OFZ7Kg-1y-43" value="(1,N)" style="resizable=0;html=1;whiteSpace=wrap;align=right;verticalAlign=bottom;" parent="S6u8QotT0W9OFZ7Kg-1y-42" connectable="0" vertex="1">
          <mxGeometry x="1" relative="1" as="geometry">
            <mxPoint as="offset" />
          </mxGeometry>
        </mxCell>
        <mxCell id="S6u8QotT0W9OFZ7Kg-1y-47" value="" style="endArrow=none;html=1;rounded=0;exitX=0.25;exitY=1;exitDx=0;exitDy=0;" parent="1" target="S6u8QotT0W9OFZ7Kg-1y-48" edge="1">
          <mxGeometry relative="1" as="geometry">
            <mxPoint x="520" y="544.5" as="sourcePoint" />
            <mxPoint x="505" y="630.5" as="targetPoint" />
          </mxGeometry>
        </mxCell>
        <mxCell id="S6u8QotT0W9OFZ7Kg-1y-48" value="&lt;u&gt;Fecha&lt;/u&gt;" style="ellipse;whiteSpace=wrap;html=1;align=center;" parent="1" vertex="1">
          <mxGeometry x="551" y="630" width="50" height="30" as="geometry" />
        </mxCell>
        <mxCell id="S6u8QotT0W9OFZ7Kg-1y-49" value="" style="endArrow=none;html=1;rounded=0;exitX=0.75;exitY=1;exitDx=0;exitDy=0;" parent="1" target="S6u8QotT0W9OFZ7Kg-1y-50" edge="1">
          <mxGeometry relative="1" as="geometry">
            <mxPoint x="570" y="544.5" as="sourcePoint" />
            <mxPoint x="695" y="609.5" as="targetPoint" />
          </mxGeometry>
        </mxCell>
        <mxCell id="S6u8QotT0W9OFZ7Kg-1y-50" value="&lt;div&gt;Descripcion&lt;/div&gt;" style="ellipse;whiteSpace=wrap;html=1;align=center;" parent="1" vertex="1">
          <mxGeometry x="615" y="615.5" width="50" height="30" as="geometry" />
        </mxCell>
        <mxCell id="S6u8QotT0W9OFZ7Kg-1y-51" value="" style="endArrow=none;html=1;rounded=0;" parent="1" target="S6u8QotT0W9OFZ7Kg-1y-52" edge="1">
          <mxGeometry relative="1" as="geometry">
            <mxPoint x="521" y="544.5" as="sourcePoint" />
            <mxPoint x="445" y="609.5" as="targetPoint" />
          </mxGeometry>
        </mxCell>
        <mxCell id="S6u8QotT0W9OFZ7Kg-1y-52" value="Lugares" style="ellipse;whiteSpace=wrap;html=1;align=center;" parent="1" vertex="1">
          <mxGeometry x="481" y="639" width="50" height="30" as="geometry" />
        </mxCell>
        <mxCell id="S6u8QotT0W9OFZ7Kg-1y-53" style="edgeStyle=orthogonalEdgeStyle;rounded=0;orthogonalLoop=1;jettySize=auto;html=1;exitX=0.5;exitY=1;exitDx=0;exitDy=0;" parent="1" source="S6u8QotT0W9OFZ7Kg-1y-52" target="S6u8QotT0W9OFZ7Kg-1y-52" edge="1">
          <mxGeometry relative="1" as="geometry" />
        </mxCell>
        <mxCell id="S6u8QotT0W9OFZ7Kg-1y-54" value="" style="endArrow=none;html=1;rounded=0;exitX=1;exitY=1;exitDx=0;exitDy=0;" parent="1" target="S6u8QotT0W9OFZ7Kg-1y-55" edge="1">
          <mxGeometry relative="1" as="geometry">
            <mxPoint x="595" y="544.5" as="sourcePoint" />
            <mxPoint x="708" y="600.5" as="targetPoint" />
          </mxGeometry>
        </mxCell>
        <mxCell id="S6u8QotT0W9OFZ7Kg-1y-55" value="horarios" style="ellipse;whiteSpace=wrap;html=1;align=center;" parent="1" vertex="1">
          <mxGeometry x="648" y="585.5" width="50" height="30" as="geometry" />
        </mxCell>
        <mxCell id="S6u8QotT0W9OFZ7Kg-1y-63" value="" style="endArrow=none;html=1;rounded=0;" parent="1" target="S6u8QotT0W9OFZ7Kg-1y-64" edge="1">
          <mxGeometry relative="1" as="geometry">
            <mxPoint x="555" y="166" as="sourcePoint" />
            <mxPoint x="615" y="166" as="targetPoint" />
          </mxGeometry>
        </mxCell>
        <mxCell id="S6u8QotT0W9OFZ7Kg-1y-64" value="&lt;u&gt;NIF&lt;/u&gt;" style="ellipse;whiteSpace=wrap;html=1;align=center;" parent="1" vertex="1">
          <mxGeometry x="710" y="130" width="50" height="30" as="geometry" />
        </mxCell>
        <mxCell id="S6u8QotT0W9OFZ7Kg-1y-65" value="" style="endArrow=none;html=1;rounded=0;exitX=0.75;exitY=0;exitDx=0;exitDy=0;" parent="1" target="S6u8QotT0W9OFZ7Kg-1y-66" edge="1">
          <mxGeometry relative="1" as="geometry">
            <mxPoint x="535" y="140" as="sourcePoint" />
            <mxPoint x="290" y="85" as="targetPoint" />
          </mxGeometry>
        </mxCell>
        <mxCell id="S6u8QotT0W9OFZ7Kg-1y-66" value="nombre" style="ellipse;whiteSpace=wrap;html=1;align=center;" parent="1" vertex="1">
          <mxGeometry x="620" y="30" width="50" height="30" as="geometry" />
        </mxCell>
        <mxCell id="S6u8QotT0W9OFZ7Kg-1y-67" value="" style="endArrow=none;html=1;rounded=0;exitX=0.25;exitY=0;exitDx=0;exitDy=0;" parent="1" target="S6u8QotT0W9OFZ7Kg-1y-68" edge="1">
          <mxGeometry relative="1" as="geometry">
            <mxPoint x="485" y="140" as="sourcePoint" />
            <mxPoint x="488" y="86" as="targetPoint" />
          </mxGeometry>
        </mxCell>
        <mxCell id="S6u8QotT0W9OFZ7Kg-1y-68" value="Apellido1" style="ellipse;whiteSpace=wrap;html=1;align=center;" parent="1" vertex="1">
          <mxGeometry x="400" y="10" width="50" height="30" as="geometry" />
        </mxCell>
        <mxCell id="S6u8QotT0W9OFZ7Kg-1y-69" value="" style="endArrow=none;html=1;rounded=0;" parent="1" target="S6u8QotT0W9OFZ7Kg-1y-70" edge="1">
          <mxGeometry relative="1" as="geometry">
            <mxPoint x="490" y="140" as="sourcePoint" />
            <mxPoint x="435" y="85" as="targetPoint" />
          </mxGeometry>
        </mxCell>
        <mxCell id="S6u8QotT0W9OFZ7Kg-1y-70" value="Direccion" style="ellipse;whiteSpace=wrap;html=1;align=center;" parent="1" vertex="1">
          <mxGeometry x="301" y="10" width="50" height="30" as="geometry" />
        </mxCell>
        <mxCell id="S6u8QotT0W9OFZ7Kg-1y-71" value="" style="endArrow=none;html=1;rounded=0;exitX=1;exitY=0.25;exitDx=0;exitDy=0;" parent="1" target="S6u8QotT0W9OFZ7Kg-1y-72" edge="1">
          <mxGeometry relative="1" as="geometry">
            <mxPoint x="560" y="150" as="sourcePoint" />
            <mxPoint x="670" y="126" as="targetPoint" />
          </mxGeometry>
        </mxCell>
        <mxCell id="S6u8QotT0W9OFZ7Kg-1y-72" value="Telefono" style="ellipse;whiteSpace=wrap;html=1;align=center;" parent="1" vertex="1">
          <mxGeometry x="690" y="51" width="50" height="30" as="geometry" />
        </mxCell>
        <mxCell id="S6u8QotT0W9OFZ7Kg-1y-73" value="" style="endArrow=none;html=1;rounded=0;" parent="1" target="S6u8QotT0W9OFZ7Kg-1y-74" edge="1">
          <mxGeometry relative="1" as="geometry">
            <mxPoint x="464.6657627488421" y="140" as="sourcePoint" />
            <mxPoint x="380" y="95" as="targetPoint" />
          </mxGeometry>
        </mxCell>
        <mxCell id="S6u8QotT0W9OFZ7Kg-1y-74" value="Fecha_Nacimiento" style="ellipse;whiteSpace=wrap;html=1;align=center;" parent="1" vertex="1">
          <mxGeometry x="241" y="21" width="50" height="30" as="geometry" />
        </mxCell>
        <mxCell id="S6u8QotT0W9OFZ7Kg-1y-75" value="" style="endArrow=none;html=1;rounded=0;exitX=0;exitY=0.5;exitDx=0;exitDy=0;" parent="1" target="S6u8QotT0W9OFZ7Kg-1y-76" edge="1">
          <mxGeometry relative="1" as="geometry">
            <mxPoint x="460" y="160" as="sourcePoint" />
            <mxPoint x="370" y="137" as="targetPoint" />
          </mxGeometry>
        </mxCell>
        <mxCell id="S6u8QotT0W9OFZ7Kg-1y-76" value="Nacionalidad" style="ellipse;whiteSpace=wrap;html=1;align=center;" parent="1" vertex="1">
          <mxGeometry x="191" y="51" width="50" height="30" as="geometry" />
        </mxCell>
        <mxCell id="S6u8QotT0W9OFZ7Kg-1y-77" value="" style="endArrow=none;html=1;rounded=0;" parent="1" target="S6u8QotT0W9OFZ7Kg-1y-78" edge="1">
          <mxGeometry relative="1" as="geometry">
            <mxPoint x="460" y="165.0543148533053" as="sourcePoint" />
            <mxPoint x="360" y="175" as="targetPoint" />
          </mxGeometry>
        </mxCell>
        <mxCell id="S6u8QotT0W9OFZ7Kg-1y-78" value="Sexo" style="ellipse;whiteSpace=wrap;html=1;align=center;" parent="1" vertex="1">
          <mxGeometry x="156" y="81" width="50" height="30" as="geometry" />
        </mxCell>
        <mxCell id="S6u8QotT0W9OFZ7Kg-1y-79" value="" style="endArrow=none;html=1;rounded=0;" parent="1" target="S6u8QotT0W9OFZ7Kg-1y-80" edge="1">
          <mxGeometry relative="1" as="geometry">
            <mxPoint x="460" y="178.37046351639992" as="sourcePoint" />
            <mxPoint x="360" y="215" as="targetPoint" />
          </mxGeometry>
        </mxCell>
        <mxCell id="S6u8QotT0W9OFZ7Kg-1y-80" value="Firma" style="ellipse;whiteSpace=wrap;html=1;align=center;" parent="1" vertex="1">
          <mxGeometry x="156" y="130" width="50" height="30" as="geometry" />
        </mxCell>
        <mxCell id="S6u8QotT0W9OFZ7Kg-1y-81" value="" style="endArrow=none;html=1;rounded=0;" parent="1" target="S6u8QotT0W9OFZ7Kg-1y-82" edge="1">
          <mxGeometry relative="1" as="geometry">
            <mxPoint x="560" y="158.25545624511415" as="sourcePoint" />
            <mxPoint x="613" y="215" as="targetPoint" />
          </mxGeometry>
        </mxCell>
        <mxCell id="S6u8QotT0W9OFZ7Kg-1y-82" value="Salario" style="ellipse;whiteSpace=wrap;html=1;align=center;" parent="1" vertex="1">
          <mxGeometry x="690" y="81" width="50" height="30" as="geometry" />
        </mxCell>
        <mxCell id="T4INIT_YNYkDTxaIdpLA-9" value="Necesita" style="shape=rhombus;perimeter=rhombusPerimeter;whiteSpace=wrap;html=1;align=center;fillColor=#76608a;fontColor=#ffffff;strokeColor=#432D57;" parent="1" vertex="1">
          <mxGeometry x="-50" y="500" width="90" height="40" as="geometry" />
        </mxCell>
        <mxCell id="T4INIT_YNYkDTxaIdpLA-10" value="" style="endArrow=none;html=1;rounded=0;exitX=0;exitY=0.5;exitDx=0;exitDy=0;" parent="1" source="T4INIT_YNYkDTxaIdpLA-9" edge="1">
          <mxGeometry relative="1" as="geometry">
            <mxPoint x="-98" y="490" as="sourcePoint" />
            <mxPoint x="-145" y="520" as="targetPoint" />
          </mxGeometry>
        </mxCell>
        <mxCell id="T4INIT_YNYkDTxaIdpLA-11" value="(1,N)" style="resizable=0;html=1;whiteSpace=wrap;align=right;verticalAlign=bottom;" parent="T4INIT_YNYkDTxaIdpLA-10" connectable="0" vertex="1">
          <mxGeometry x="1" relative="1" as="geometry">
            <mxPoint x="34" as="offset" />
          </mxGeometry>
        </mxCell>
        <mxCell id="T4INIT_YNYkDTxaIdpLA-12" value="" style="endArrow=none;html=1;rounded=0;exitX=1;exitY=0.5;exitDx=0;exitDy=0;" parent="1" source="T4INIT_YNYkDTxaIdpLA-9" edge="1">
          <mxGeometry relative="1" as="geometry">
            <mxPoint x="112" y="490" as="sourcePoint" />
            <mxPoint x="130" y="520" as="targetPoint" />
          </mxGeometry>
        </mxCell>
        <mxCell id="T4INIT_YNYkDTxaIdpLA-13" value="(1,N)" style="resizable=0;html=1;whiteSpace=wrap;align=right;verticalAlign=bottom;" parent="T4INIT_YNYkDTxaIdpLA-12" connectable="0" vertex="1">
          <mxGeometry x="1" relative="1" as="geometry">
            <mxPoint x="5" as="offset" />
          </mxGeometry>
        </mxCell>
        <mxCell id="T4INIT_YNYkDTxaIdpLA-14" value="Prerrequisito" style="shape=ext;margin=3;double=1;whiteSpace=wrap;html=1;align=center;fillColor=#f0a30a;fontColor=#000000;strokeColor=#BD7000;" parent="1" vertex="1">
          <mxGeometry x="-240" y="500" width="100" height="40" as="geometry" />
        </mxCell>
        <mxCell id="T4INIT_YNYkDTxaIdpLA-15" value="" style="endArrow=none;html=1;rounded=0;" parent="1" source="T4INIT_YNYkDTxaIdpLA-14" target="T4INIT_YNYkDTxaIdpLA-16" edge="1">
          <mxGeometry relative="1" as="geometry">
            <mxPoint x="-220" y="465" as="sourcePoint" />
            <mxPoint x="-160" y="465" as="targetPoint" />
          </mxGeometry>
        </mxCell>
        <mxCell id="T4INIT_YNYkDTxaIdpLA-16" value="Cursos_Anteriores" style="ellipse;whiteSpace=wrap;html=1;align=center;" parent="1" vertex="1">
          <mxGeometry x="-215" y="390" width="50" height="30" as="geometry" />
        </mxCell>
        <mxCell id="T4INIT_YNYkDTxaIdpLA-17" value="" style="endArrow=none;html=1;rounded=0;exitX=0;exitY=0.25;exitDx=0;exitDy=0;" parent="1" source="T4INIT_YNYkDTxaIdpLA-14" target="T4INIT_YNYkDTxaIdpLA-18" edge="1">
          <mxGeometry relative="1" as="geometry">
            <mxPoint x="-325" y="465" as="sourcePoint" />
            <mxPoint x="-265" y="465" as="targetPoint" />
          </mxGeometry>
        </mxCell>
        <mxCell id="T4INIT_YNYkDTxaIdpLA-18" value="Opcional" style="ellipse;whiteSpace=wrap;html=1;align=center;" parent="1" vertex="1">
          <mxGeometry x="-290" y="445" width="50" height="30" as="geometry" />
        </mxCell>
        <mxCell id="T4INIT_YNYkDTxaIdpLA-19" value="" style="endArrow=none;html=1;rounded=0;" parent="1" target="T4INIT_YNYkDTxaIdpLA-20" edge="1">
          <mxGeometry relative="1" as="geometry">
            <mxPoint x="-170" y="503.3333333333335" as="sourcePoint" />
            <mxPoint x="-100" y="480" as="targetPoint" />
          </mxGeometry>
        </mxCell>
        <mxCell id="T4INIT_YNYkDTxaIdpLA-20" value="Obligatoria" style="ellipse;whiteSpace=wrap;html=1;align=center;" parent="1" vertex="1">
          <mxGeometry x="-140" y="440" width="50" height="30" as="geometry" />
        </mxCell>
        <mxCell id="mDc0vOu2M43wSEQ1yqUx-25" value="" style="endArrow=none;html=1;rounded=0;" parent="1" target="mDc0vOu2M43wSEQ1yqUx-26" edge="1">
          <mxGeometry relative="1" as="geometry">
            <mxPoint x="521.2236492497138" y="140" as="sourcePoint" />
            <mxPoint x="587" y="95" as="targetPoint" />
          </mxGeometry>
        </mxCell>
        <mxCell id="mDc0vOu2M43wSEQ1yqUx-26" value="Apellido2" style="ellipse;whiteSpace=wrap;html=1;align=center;" parent="1" vertex="1">
          <mxGeometry x="525" y="40" width="50" height="30" as="geometry" />
        </mxCell>
        <mxCell id="GUouaNbEDkVh2rOGSN0w-19" value="Empleado" style="whiteSpace=wrap;html=1;align=center;fillColor=#f0a30a;strokeColor=#BD7000;fontColor=#000000;" parent="1" vertex="1">
          <mxGeometry x="460" y="141" width="100" height="40" as="geometry" />
        </mxCell>
        <mxCell id="GUouaNbEDkVh2rOGSN0w-20" value="" style="triangle;whiteSpace=wrap;html=1;rotation=90;fillColor=#f0a30a;strokeColor=#BD7000;fontColor=#000000;" parent="1" vertex="1">
          <mxGeometry x="495" y="206" width="30" height="60" as="geometry" />
        </mxCell>
        <mxCell id="GUouaNbEDkVh2rOGSN0w-21" value="" style="endArrow=none;html=1;rounded=0;exitX=0.5;exitY=1;exitDx=0;exitDy=0;entryX=0.5;entryY=0;entryDx=0;entryDy=0;" parent="1" source="GUouaNbEDkVh2rOGSN0w-20" edge="1">
          <mxGeometry relative="1" as="geometry">
            <mxPoint x="650" y="251" as="sourcePoint" />
            <mxPoint x="370" y="309" as="targetPoint" />
          </mxGeometry>
        </mxCell>
        <mxCell id="GUouaNbEDkVh2rOGSN0w-22" value="" style="endArrow=none;html=1;rounded=0;exitX=0.5;exitY=0;exitDx=0;exitDy=0;" parent="1" source="GUouaNbEDkVh2rOGSN0w-20" target="GUouaNbEDkVh2rOGSN0w-31" edge="1">
          <mxGeometry relative="1" as="geometry">
            <mxPoint x="650" y="251" as="sourcePoint" />
            <mxPoint x="660" y="309" as="targetPoint" />
          </mxGeometry>
        </mxCell>
        <mxCell id="GUouaNbEDkVh2rOGSN0w-23" value="" style="ellipse;whiteSpace=wrap;html=1;aspect=fixed;" parent="1" vertex="1">
          <mxGeometry x="505" y="196" width="10" height="10" as="geometry" />
        </mxCell>
        <mxCell id="GUouaNbEDkVh2rOGSN0w-24" value="" style="endArrow=none;html=1;rounded=0;exitX=0.5;exitY=0;exitDx=0;exitDy=0;entryX=0.5;entryY=1;entryDx=0;entryDy=0;" parent="1" source="GUouaNbEDkVh2rOGSN0w-23" target="GUouaNbEDkVh2rOGSN0w-19" edge="1">
          <mxGeometry relative="1" as="geometry">
            <mxPoint x="650" y="251" as="sourcePoint" />
            <mxPoint x="810" y="251" as="targetPoint" />
          </mxGeometry>
        </mxCell>
        <mxCell id="GUouaNbEDkVh2rOGSN0w-25" value="" style="endArrow=none;html=1;rounded=0;exitX=0.5;exitY=1;exitDx=0;exitDy=0;entryX=0;entryY=0.5;entryDx=0;entryDy=0;" parent="1" source="GUouaNbEDkVh2rOGSN0w-23" target="GUouaNbEDkVh2rOGSN0w-20" edge="1">
          <mxGeometry relative="1" as="geometry">
            <mxPoint x="650" y="251" as="sourcePoint" />
            <mxPoint x="810" y="251" as="targetPoint" />
          </mxGeometry>
        </mxCell>
        <mxCell id="GUouaNbEDkVh2rOGSN0w-26" value="" style="ellipse;whiteSpace=wrap;html=1;aspect=fixed;" parent="1" vertex="1">
          <mxGeometry x="557" y="225" width="10" height="10" as="geometry" />
        </mxCell>
        <mxCell id="GUouaNbEDkVh2rOGSN0w-27" value="" style="endArrow=none;html=1;rounded=0;exitX=0;exitY=0.5;exitDx=0;exitDy=0;entryX=0.3;entryY=0.167;entryDx=0;entryDy=0;entryPerimeter=0;" parent="1" source="GUouaNbEDkVh2rOGSN0w-26" target="GUouaNbEDkVh2rOGSN0w-20" edge="1">
          <mxGeometry relative="1" as="geometry">
            <mxPoint x="650" y="251" as="sourcePoint" />
            <mxPoint x="810" y="251" as="targetPoint" />
          </mxGeometry>
        </mxCell>
        <mxCell id="GUouaNbEDkVh2rOGSN0w-28" value="Tipo" style="text;html=1;align=center;verticalAlign=middle;whiteSpace=wrap;rounded=0;" parent="1" vertex="1">
          <mxGeometry x="557" y="215" width="60" height="30" as="geometry" />
        </mxCell>
        <mxCell id="GUouaNbEDkVh2rOGSN0w-29" value="" style="endArrow=none;html=1;rounded=0;" parent="1" edge="1">
          <mxGeometry relative="1" as="geometry">
            <mxPoint x="420" y="251" as="sourcePoint" />
            <mxPoint x="600" y="251" as="targetPoint" />
            <Array as="points">
              <mxPoint x="510" y="281" />
            </Array>
          </mxGeometry>
        </mxCell>
        <mxCell id="GUouaNbEDkVh2rOGSN0w-30" value="Docente" style="whiteSpace=wrap;html=1;align=center;fillColor=#f0a30a;strokeColor=#BD7000;fontColor=#000000;" parent="1" vertex="1">
          <mxGeometry x="320" y="310" width="100" height="40" as="geometry" />
        </mxCell>
        <mxCell id="GUouaNbEDkVh2rOGSN0w-31" value="Alumno" style="whiteSpace=wrap;html=1;align=center;fillColor=#f0a30a;strokeColor=#BD7000;fontColor=#000000;" parent="1" vertex="1">
          <mxGeometry x="590" y="320" width="100" height="40" as="geometry" />
        </mxCell>
        <mxCell id="GUouaNbEDkVh2rOGSN0w-32" value="Imparte" style="shape=rhombus;perimeter=rhombusPerimeter;whiteSpace=wrap;html=1;align=center;fillColor=#76608a;fontColor=#ffffff;strokeColor=#432D57;" parent="1" vertex="1">
          <mxGeometry x="394" y="415" width="90" height="40" as="geometry" />
        </mxCell>
        <mxCell id="GUouaNbEDkVh2rOGSN0w-33" value="" style="endArrow=none;html=1;rounded=0;exitX=0;exitY=0.5;exitDx=0;exitDy=0;entryX=0.5;entryY=1;entryDx=0;entryDy=0;" parent="1" source="GUouaNbEDkVh2rOGSN0w-32" target="GUouaNbEDkVh2rOGSN0w-30" edge="1">
          <mxGeometry relative="1" as="geometry">
            <mxPoint x="427" y="400" as="sourcePoint" />
            <mxPoint x="380" y="430" as="targetPoint" />
          </mxGeometry>
        </mxCell>
        <mxCell id="GUouaNbEDkVh2rOGSN0w-34" value="(0,M)" style="resizable=0;html=1;whiteSpace=wrap;align=right;verticalAlign=bottom;" parent="GUouaNbEDkVh2rOGSN0w-33" connectable="0" vertex="1">
          <mxGeometry x="1" relative="1" as="geometry">
            <mxPoint x="34" as="offset" />
          </mxGeometry>
        </mxCell>
        <mxCell id="GUouaNbEDkVh2rOGSN0w-35" value="" style="endArrow=none;html=1;rounded=0;exitX=1;exitY=0.5;exitDx=0;exitDy=0;entryX=0.25;entryY=0;entryDx=0;entryDy=0;" parent="1" source="GUouaNbEDkVh2rOGSN0w-32" target="T4INIT_YNYkDTxaIdpLA-22" edge="1">
          <mxGeometry relative="1" as="geometry">
            <mxPoint x="227" y="390" as="sourcePoint" />
            <mxPoint x="400" y="420" as="targetPoint" />
          </mxGeometry>
        </mxCell>
        <mxCell id="GUouaNbEDkVh2rOGSN0w-36" value="(0,N)" style="resizable=0;html=1;whiteSpace=wrap;align=right;verticalAlign=bottom;" parent="GUouaNbEDkVh2rOGSN0w-35" connectable="0" vertex="1">
          <mxGeometry x="1" relative="1" as="geometry">
            <mxPoint as="offset" />
          </mxGeometry>
        </mxCell>
        <mxCell id="-e6O3UNRy1YqCrftpCbr-11" value="EstÃ¡" style="shape=rhombus;perimeter=rhombusPerimeter;whiteSpace=wrap;html=1;align=center;fillColor=#76608a;fontColor=#ffffff;strokeColor=#432D57;" parent="1" vertex="1">
          <mxGeometry x="730" y="370" width="90" height="40" as="geometry" />
        </mxCell>
        <mxCell id="-e6O3UNRy1YqCrftpCbr-12" value="" style="endArrow=none;html=1;rounded=0;exitX=0;exitY=0.5;exitDx=0;exitDy=0;" parent="1" source="-e6O3UNRy1YqCrftpCbr-11" target="T4INIT_YNYkDTxaIdpLA-22" edge="1">
          <mxGeometry relative="1" as="geometry">
            <mxPoint x="128" y="225" as="sourcePoint" />
            <mxPoint x="81" y="255" as="targetPoint" />
          </mxGeometry>
        </mxCell>
        <mxCell id="-e6O3UNRy1YqCrftpCbr-13" value="(1,M)" style="resizable=0;html=1;whiteSpace=wrap;align=right;verticalAlign=bottom;" parent="-e6O3UNRy1YqCrftpCbr-12" connectable="0" vertex="1">
          <mxGeometry x="1" relative="1" as="geometry">
            <mxPoint x="34" as="offset" />
          </mxGeometry>
        </mxCell>
        <mxCell id="-e6O3UNRy1YqCrftpCbr-14" value="" style="endArrow=none;html=1;rounded=0;exitX=1;exitY=0.5;exitDx=0;exitDy=0;entryX=1;entryY=1;entryDx=0;entryDy=0;" parent="1" source="-e6O3UNRy1YqCrftpCbr-11" target="GUouaNbEDkVh2rOGSN0w-19" edge="1">
          <mxGeometry relative="1" as="geometry">
            <mxPoint x="128" y="225" as="sourcePoint" />
            <mxPoint x="301" y="255" as="targetPoint" />
            <Array as="points">
              <mxPoint x="760" y="200" />
            </Array>
          </mxGeometry>
        </mxCell>
        <mxCell id="-e6O3UNRy1YqCrftpCbr-15" value="(1,N)" style="resizable=0;html=1;whiteSpace=wrap;align=right;verticalAlign=bottom;" parent="-e6O3UNRy1YqCrftpCbr-14" connectable="0" vertex="1">
          <mxGeometry x="1" relative="1" as="geometry">
            <mxPoint as="offset" />
          </mxGeometry>
        </mxCell>
      </root>
    </mxGraphModel>
  </diagram>
</mxfile>
